<svg class="fgdgdfg" width="1772" height="1772" viewBox="0 0 1772 1772" fill="none" xmlns="http://www.w3.org/2000/svg">
<path fill-rule="evenodd" clip-rule="evenodd" d="M1477.5 515.5C1469.6 503.5 1443.2 466.5 1431.1 450.5C1399.6 408.7 1361.6 370.8 1319.5 339.4C1304.8 328.4 1268.2 302.2 1258 295.3C1228.1 275.3 1190.1 255.4 1155.3 241.6C1123 228.9 1105.1 223.6 1046 209.6C988.4 196 970.5 192.7 936.5 189.5C917.1 187.6 872.5 186.8 853.9 188C816.5 190.4 789.3 194.8 737 207.1C669.8 222.9 655.5 226.9 625.7 238.1C573.3 258 535.8 279 476.8 321.6C435.2 351.6 417.9 366 392 392C362 422 338.9 451 298.8 509C264.2 559 235.4 622.6 220.2 682.5C216.2 697.9 200 766.3 200 767.5C200 767.8 233.4 768 274.3 768H348.6L350.9 757.7C356.3 733.6 367.6 699.3 378.8 672.7L383.6 661.5H886H1388.4L1393.2 672.7C1404.3 699 1415.3 732.6 1421.1 757.7L1423.5 768H1497.8C1538.6 768 1572 767.8 1572 767.5C1572 766.6 1556.2 699.6 1552.5 685C1537.7 626.1 1511.9 567.6 1477.5 515.5ZM1582 962V899.5V837H886.5H191V899.5V962H510.5H830V1274V1586H880H930V1274V962H1256H1582ZM749 1186V1111V1036H467.5H186V1311V1586H261H336L336.2 1450.8L336.5 1315.6L342 1323C362.2 1350.3 395.2 1385.4 423.5 1409.5C441.6 1425 481.7 1454.7 511.4 1474.8C548 1499.4 585.9 1518.9 627.4 1534.5C651.6 1543.5 673.3 1549.8 713.5 1559.4L748.5 1567.7L748.8 1493.7C748.9 1453 748.9 1419.5 748.7 1419.3C748.5 1419.2 740.7 1416.8 731.4 1414.1C610.5 1378.6 506.9 1303.8 433.6 1199L424.8 1186.5L586.9 1186.2L749 1186ZM1557.9 1064.5C1561.3 1050.2 1564.3 1037.9 1564.5 1037.2C1564.8 1036.3 1509.1 1036 1288 1036H1011V1303C1011 1531.6 1011.2 1570 1012.4 1570C1013.8 1570 1068.2 1557.2 1087.4 1552.4C1148.5 1537.1 1211.1 1508.8 1263 1473.2C1277.9 1463 1307.5 1441.7 1321.5 1431.1C1362.3 1400.4 1401 1361.7 1431.2 1321.5C1482.9 1252.5 1506.8 1212.8 1528.5 1160C1540.3 1131.1 1548.5 1104.7 1557.9 1064.5ZM847 337C729.7 346 621.5 389.9 532.2 464.8C520 475 500.7 493.1 490.1 504.3L483.7 511H886H1288.3L1281.4 503.7C1255.4 476.4 1221.5 448.2 1188.5 426.5C1114.5 377.7 1031.4 348.2 940.5 338.4C922.9 336.6 864.6 335.7 847 337ZM1159.8 1363C1159.4 1363 1159 1323.2 1159 1274.5V1186H1253C1344.8 1186 1347 1186 1346.1 1187.9C1344.1 1191.5 1324.5 1218.5 1316.6 1228.4C1277.5 1277.5 1227.5 1321.8 1174.6 1354.4C1166.9 1359.2 1160.3 1363 1159.8 1363Z" fill="currentColor"/>
</svg>
